PathFileType	4	(X/Y/Z)	/Users/itak/Documents/Research/Walk-IL/dataset/trc/00577_00009.trc
DataRate	CameraRate	NumFrames	NumMarkers	Units	OrigDataRate	OrigDataStartFrame	OrigNumFrames
100.000000	100.000000	4	53	mm	100.000000	349	559
Frame#	Time	RPSI			LPSI			L3			STRN			T10			C7			CLAV			RBAK			LBAK			LSHO			LUPA			LAEL			LAOL			LWTS			LWPS			LFRA			LIFD			LHPS			LHTS			RSHO			RUPA			RAEL			RAOL			RWTS			RWPS			RFRA			RIFD			RHTS			RHPS			RBHD			LFHD			RFHD			LBHD			LHIP			RHIP			RASI			LASI			LKNE			LTHI			LANK			LTIP			LTOE			LMT1			LMT5			LHEE			RKNE			RTHI			RANK			RTIP			RTOE			RMT1			RMT5			RHEE			
		X1	Y1	Z1	X2	Y2	Z2	X3	Y3	Z3	X4	Y4	Z4	X5	Y5	Z5	X6	Y6	Z6	X7	Y7	Z7	X8	Y8	Z8	X9	Y9	Z9	X10	Y10	Z10	X11	Y11	Z11	X12	Y12	Z12	X13	Y13	Z13	X14	Y14	Z14	X15	Y15	Z15	X16	Y16	Z16	X17	Y17	Z17	X18	Y18	Z18	X19	Y19	Z19	X20	Y20	Z20	X21	Y21	Z21	X22	Y22	Z22	X23	Y23	Z23	X24	Y24	Z24	X25	Y25	Z25	X26	Y26	Z26	X27	Y27	Z27	X28	Y28	Z28	X29	Y29	Z29	X30	Y30	Z30	X31	Y31	Z31	X32	Y32	Z32	X33	Y33	Z33	X34	Y34	Z34	X35	Y35	Z35	X36	Y36	Z36	X37	Y37	Z37	X38	Y38	Z38	X39	Y39	Z39	X40	Y40	Z40	X41	Y41	Z41	X42	Y42	Z42	X43	Y43	Z43	X44	Y44	Z44	X45	Y45	Z45	X46	Y46	Z46	X47	Y47	Z47	X48	Y48	Z48	X49	Y49	Z49	X50	Y50	Z50	X51	Y51	Z51	X52	Y52	Z52	X53	Y53	Z53	

350	3.49	170.7401733398438	987.8560180664062	487.3363037109375	122.5197601318359	984.5465087890625	363.701904296875	151.2630157470703	1083.899047851562	417.3653259277344	361.1607971191406	1268.540283203125	309.2574462890625	142.4212493896484	1209.2568359375	414.4557495117188	191.4395904541016	1483.590576171875	397.3818359375	341.7501220703125	1379.878051757812	313.5072937011719	165.0687255859375	1362.180297851562	507.7113037109375	119.0663452148438	1428.650634765625	333.3299255371094	166.4399871826172	1448.011474609375	213.6097412109375	117.8398742675781	1316.838012695312	158.6569213867188	118.4000244140625	1095.887329101562	145.6826324462891	75.1590576171875	1092.001953125	237.3361511230469	237.8873596191406	862.1604614257812	144.7711944580078	162.5142211914062	832.3255004882812	111.9510955810547	138.1239318847656	1010.425537109375	131.3810577392578	241.0683288574219	693.6277465820312	161.6755065917969	177.1611633300781	773.2992553710938	119.111083984375	244.6801910400391	782.8159790039062	125.4086837768555	312.3021545410156	1448.170776367188	511.7709045410156	324.9091186523438	1385.7763671875	582.5850219726562	330.0138854980469	1100.646240234375	644.3085327148438	266.8632507324219	1085.56982421875	642.5350341796875	433.7475280761719	874.709228515625	567.04833984375	416.9135437011719	858.9998779296875	645.9649047851562	340.8727111816406	1045.703369140625	650.5519409179688	438.8174743652344	702.4176635742188	575.1587524414062	464.8473205566406	783.4712524414062	575.9545288085938	432.1179504394531	784.7661743164062	642.5878295898438	314.1519470214844	1666.238525390625	411.8010864257812	345.8377685546875	1675.552001953125	207.4740295410156	425.2083129882812	1680.434814453125	327.2095336914062	228.6678771972656	1658.793579101562	269.8652038574219	205.2512359619141	904.580322265625	202.5250396728516	328.6748046875	920.44189453125	559.7218017578125	392.1769104003906	950.561279296875	477.6718444824219	294.0440673828125	936.4913330078125	220.2937774658203	372.8377075195312	486.9992370605469	254.5731201171875	307.1532897949219	640.6467895507812	217.8869781494141	361.1459350585938	33.51889801025391	382.9019165039062	352.7615661621094	237.9748382568359	326.6119689941406	566.0615844726562	41.82813262939453	301.0465087890625	528.1552734375	48.20133209228516	373.4264526367188	451.2731628417969	37.42440795898438	299.5503234863281	341.578857421875	36.5886116027832	466.6766662597656	329.1929931640625	480.7064208984375	572.4598999023438	359.8352355957031	769.2190551757812	556.4585571289062	-62.03805923461914	209.8727722167969	671.0528564453125	237.5598297119141	365.2419738769531	592.7465209960938	35.94133377075195	32.23564529418945	591.10791015625	1.167219042778015	91.59944152832031	561.2852172851562	-10.16566276550293	88.09968566894531	664.189697265625	-102.6147155761719	258.6282653808594	626.7623291015625	
351	3.5	179.7238616943359	988.1459350585938	485.1051940917969	129.408935546875	985.6419677734375	362.2745971679688	158.9261779785156	1084.520751953125	415.3156433105469	367.7063598632812	1269.18896484375	304.7612915039062	150.25927734375	1209.913330078125	412.22802734375	198.9971313476562	1484.189331054688	394.6148071289062	348.4453430175781	1380.542114257812	309.1803283691406	173.7633666992188	1362.862915039062	505.1481018066406	125.9198226928711	1429.313354492188	331.1268310546875	172.2410888671875	1448.801025390625	211.017578125	123.5660247802734	1317.679565429688	156.0483703613281	125.2129516601562	1096.890380859375	142.2503051757812	82.24250793457031	1092.05419921875	234.0482788085938	249.0353698730469	865.9417114257812	138.8951416015625	174.1281433105469	834.5813598632812	106.462287902832	146.2646484375	1011.979125976562	127.3395080566406	256.9183349609375	697.4505615234375	153.4050445556641	190.4549102783203	775.9374389648438	112.6245269775391	257.7909851074219	787.2271118164062	118.2255706787109	320.9992980957031	1448.943115234375	507.6549682617188	334.3541870117188	1386.528686523438	578.32275390625	340.49267578125	1101.31005859375	639.7631225585938	277.2732543945312	1086.332153320312	638.8866577148438	443.0073547363281	875.1497802734375	561.5211181640625	427.3451232910156	859.6746826171875	640.6838989257812	351.387451171875	1046.452026367188	645.9284057617188	447.6390991210938	702.8232421875	569.93701171875	473.919189453125	783.853271484375	570.0965576171875	442.1109313964844	785.3359375	637.1956176757812	321.4771423339844	1666.875732421875	407.7382202148438	351.6328125	1676.348266601562	203.1842956542969	431.8768920898438	1681.128540039062	322.3731384277344	234.8968963623047	1659.489135742188	266.4483947753906	209.6678009033203	905.3753051757812	200.0468902587891	338.0816955566406	920.573486328125	555.476318359375	400.6424255371094	951.163818359375	472.2239074707031	298.9062805175781	937.14892578125	216.3172912597656	374.9683227539062	486.5523681640625	252.5517578125	310.2666931152344	640.6742553710938	215.6298828125	361.100341796875	33.4245719909668	382.8649597167969	353.5133056640625	237.9759979248047	325.8345642089844	565.910400390625	41.96931457519531	300.9085388183594	527.9693603515625	48.33096694946289	373.3316040039062	451.1470031738281	37.36520767211914	299.4612731933594	341.5582885742188	36.76122665405273	466.7343139648438	346.8319091796875	480.5104675292969	565.9257202148438	371.9931640625	769.68505859375	550.7456665039062	-44.21673583984375	213.5154876708984	673.3063354492188	255.2058715820312	365.5515747070312	588.0969848632812	51.67832565307617	33.73483276367188	591.3444213867188	16.17868614196777	94.28261566162109	562.3377685546875	7.644542694091797	91.99067687988281	665.468017578125	-86.20680236816406	262.18505859375	630.2305297851562	
352	3.51	188.7295684814453	988.4534301757812	482.8243408203125	136.1638031005859	986.7168579101562	360.8789978027344	166.4017944335938	1085.190063476562	413.3518676757812	374.0862731933594	1269.8310546875	300.309814453125	157.8774261474609	1210.621215820312	410.1499633789062	206.4205169677734	1484.823120117188	391.8764343261719	355.0045776367188	1381.207885742188	304.8719482421875	182.3589324951172	1363.568237304688	502.6219482421875	132.6543426513672	1430.028564453125	328.9377136230469	177.9749603271484	1449.631225585938	208.4570922851562	129.1987152099609	1318.586059570312	153.4473419189453	131.8344116210938	1097.986572265625	138.8191833496094	89.10596466064453	1092.171752929688	230.7420959472656	259.9609985351562	869.9403076171875	132.9234161376953	185.5469665527344	837.098388671875	100.8321990966797	154.2134857177734	1013.682739257812	123.2605285644531	272.4297790527344	701.6276245117188	144.8981475830078	203.511474609375	778.8873291015625	105.9600601196289	270.5781555175781	791.9058227539062	110.9545288085938	329.5700988769531	1449.7373046875	503.5580749511719	343.6876831054688	1387.325073242188	574.0706787109375	350.9076843261719	1102.005615234375	635.1768188476562	287.6160888671875	1087.076416015625	635.1840209960938	452.347412109375	875.6525268554688	555.9888916015625	437.8385009765625	860.4281616210938	635.37939453125	361.8949584960938	1047.230590820312	641.2716674804688	456.5392456054688	703.2801513671875	564.8013305664062	483.0758666992188	784.28369140625	564.2779541015625	452.1715087890625	785.9871215820312	631.828125	328.735107421875	1667.5126953125	403.6909790039062	357.3683166503906	1677.088989257812	198.9061126708984	438.4828186035156	1681.756225585938	317.5525512695312	241.0606384277344	1660.209716796875	263.023681640625	213.8809661865234	906.1299438476562	197.6469116210938	347.4613037109375	920.8426513671875	551.1455688476562	408.8970031738281	951.8309936523438	466.7555236816406	303.5611572265625	937.7921752929688	212.3625030517578	376.9906616210938	486.1097106933594	250.6084899902344	313.260986328125	640.7027587890625	213.4355010986328	361.0596618652344	33.34295654296875	382.8228759765625	354.244140625	237.9938812255859	325.0777587890625	565.7601318359375	42.12302398681641	300.7429809570312	527.7776489257812	48.46636962890625	373.2123413085938	451.0167846679688	37.3032341003418	299.3551330566406	341.5403442382812	36.94873046875	466.7836608886719	364.1992797851562	480.6033630371094	559.0186157226562	383.9261169433594	770.3090209960938	544.9757080078125	-25.66086387634277	215.8520050048828	674.9534912109375	272.8591613769531	366.002197265625	583.126708984375	70.15499114990234	35.70630264282227	591.4854736328125	33.36106491088867	96.43010711669922	563.1283569335938	27.49234962463379	95.23873138427734	666.4746704101562	-69.3226318359375	264.0574035644531	632.9489135742188	
353	3.52	197.6439056396484	988.7941284179688	480.5257263183594	142.8017883300781	987.753662109375	359.4986877441406	173.7287292480469	1085.89990234375	411.4464111328125	380.3062744140625	1270.464477539062	295.890869140625	165.2969207763672	1211.370239257812	408.2071533203125	213.7086334228516	1485.489624023438	389.1669616699219	361.4161682128906	1381.872924804688	300.5901794433594	190.8583221435547	1364.285522460938	500.1343383789062	139.2755432128906	1430.789306640625	326.778564453125	183.6180267333984	1450.492431640625	205.9410552978516	134.7078857421875	1319.548095703125	150.8766326904297	138.2681121826172	1099.161987304688	135.3893127441406	95.75394439697266	1092.337890625	227.4134368896484	270.6438293457031	874.130126953125	126.8868865966797	196.7522888183594	839.8564453125	95.07643127441406	161.9725799560547	1015.520751953125	119.1402587890625	287.5523376464844	706.1290283203125	136.2443084716797	216.2987823486328	782.1198120117188	99.15776824951172	283.0229187011719	796.8112182617188	103.6454849243164	338.018310546875	1450.537841796875	499.4814453125	352.9160766601562	1388.152954101562	569.8306274414062	361.2385864257812	1102.730346679688	630.5808715820312	297.8871459960938	1087.797241210938	631.4413452148438	461.7614440917969	876.2337646484375	550.4620361328125	448.3461608886719	861.246826171875	630.0640258789062	372.3632507324219	1048.024291992188	636.6024169921875	465.5837707519531	703.8130493164062	559.6957397460938	492.3452758789062	784.7891235351562	558.5001220703125	462.3020935058594	786.7156982421875	626.4708251953125	335.9259033203125	1668.151489257812	399.6553344726562	363.0455017089844	1677.777221679688	194.6380920410156	445.0279846191406	1682.326782226562	312.7408447265625	247.1557922363281	1660.954345703125	259.5960693359375	217.9224395751953	906.83447265625	195.3138122558594	356.8566284179688	921.248291015625	546.6791381835938	416.9390869140625	952.5557250976562	461.2692260742188	308.0025024414062	938.4087524414062	208.4384613037109	378.9153442382812	485.6741027832031	248.7387237548828	316.1448974609375	640.7192993164062	211.3095092773438	361.0273742675781	33.2816162109375	382.780029296875	354.9632568359375	238.0289154052734	324.3477783203125	565.6222534179688	42.27133560180664	300.557373046875	527.5933837890625	48.61162185668945	373.0700988769531	450.8882446289062	37.23955154418945	299.2359008789062	341.5220642089844	37.1398811340332	466.8233642578125	381.2481384277344	481.006591796875	551.787841796875	395.6195068359375	771.0919189453125	539.1661376953125	-6.335820198059082	216.8974609375	676.0494995117188	290.5195617675781	366.5859069824219	577.863037109375	91.19084930419922	37.91184997558594	591.5060424804688	52.57089996337891	97.90241241455078	563.633056640625	49.24639511108398	97.79976654052734	667.1904907226562	-51.90049743652344	264.2416076660156	634.9990844726562	
